{
  "accessors": [
    {
      "bufferView": 2,
      "componentType": 5126,
      "count": 5452,
      "max": [
        1.8869900703430176,
        1.4461537599563599,
        2.071554660797119
      ],
      "min": [
        -1.898420810699463,
        -2.116673469543457,
        -1.5963377952575684
      ],
      "type": "VEC3"
    },
    {
      "bufferView": 2,
      "byteOffset": 65424,
      "componentType": 5126,
      "count": 5452,
      "max": [
        0.9997056126594543,
        0.999687135219574,
        0.9998380541801453
      ],
      "min": [
        -0.9997056722640991,
        -0.9980701208114624,
        -0.9998137950897217
      ],
      "type": "VEC3"
    },
    {
      "bufferView": 1,
      "componentType": 5126,
      "count": 5452,
      "max": [
        0.9999998807907104,
        0.997638463973999
      ],
      "min": [
        0.0,
        0.0
      ],
      "type": "VEC2"
    },
    {
      "bufferView": 0,
      "componentType": 5125,
      "count": 15192,
      "type": "SCALAR"
    },
    {
      "bufferView": 2,
      "byteOffset": 130848,
      "componentType": 5126,
      "count": 260,
      "max": [
        1.0590598583221436,
        2.3198983669281006,
        -0.502604067325592
      ],
      "min": [
        -0.9863899946212769,
        0.7530910968780518,
        -1.8595200777053833
      ],
      "type": "VEC3"
    },
    {
      "bufferView": 2,
      "byteOffset": 133968,
      "componentType": 5126,
      "count": 260,
      "max": [
        0.9970501065254211,
        0.9813385009765625,
        0.9822129011154175
      ],
      "min": [
        -0.9971758127212524,
        -0.9765858054161072,
        -0.998915433883667
      ],
      "type": "VEC3"
    },
    {
      "bufferView": 1,
      "byteOffset": 43616,
      "componentType": 5126,
      "count": 260,
      "max": [
        0.9554504752159119,
        0.9835759997367859
      ],
      "min": [
        0.07863175868988037,
        0.08363032341003418
      ],
      "type": "VEC2"
    },
    {
      "bufferView": 0,
      "byteOffset": 60768,
      "componentType": 5125,
      "count": 654,
      "type": "SCALAR"
    }
  ],
  "asset": {
    "extras": {
      "author": "Yassine.El.Affany (https://sketchfab.com/Yassine.El.Affany)",
      "license": "CC-BY-4.0 (http://creativecommons.org/licenses/by/4.0/)",
      "source": "https://sketchfab.com/3d-models/mera-mera-no-mi-fa5917df5a214e4c9f3ec30d8688771c",
      "title": "Mera Mera no mi"
    },
    "generator": "Sketchfab-12.51.0",
    "version": "2.0"
  },
  "bufferViews": [
    {
      "buffer": 0,
      "byteLength": 63384,
      "name": "floatBufferViews",
      "target": 34963
    },
    {
      "buffer": 0,
      "byteLength": 45696,
      "byteOffset": 63384,
      "byteStride": 8,
      "name": "floatBufferViews",
      "target": 34962
    },
    {
      "buffer": 0,
      "byteLength": 137088,
      "byteOffset": 109080,
      "byteStride": 12,
      "name": "floatBufferViews",
      "target": 34962
    }
  ],
  "buffers": [
    {
      "byteLength": 246168,
      "uri": "scene.bin"
    }
  ],
  "materials": [
    {
      "doubleSided": true,
      "name": "Inner",
      "pbrMetallicRoughness": {
        "baseColorFactor": [
          0.859068,
          0.105741,
          0.0230709,
          1.0
        ],
        "metallicFactor": 0.0,
        "roughnessFactor": 0.5
      }
    },
    {
      "doubleSided": true,
      "name": "Material.001",
      "pbrMetallicRoughness": {
        "baseColorFactor": [
          0.0163949,
          0.21403,
          0.0797713,
          1.0
        ],
        "metallicFactor": 0.0,
        "roughnessFactor": 0.5
      }
    }
  ],
  "meshes": [
    {
      "name": "Object_0",
      "primitives": [
        {
          "attributes": {
            "NORMAL": 1,
            "POSITION": 0,
            "TEXCOORD_0": 2
          },
          "indices": 3,
          "material": 0,
          "mode": 4
        }
      ]
    },
    {
      "name": "Object_1",
      "primitives": [
        {
          "attributes": {
            "NORMAL": 5,
            "POSITION": 4,
            "TEXCOORD_0": 6
          },
          "indices": 7,
          "material": 1,
          "mode": 4
        }
      ]
    }
  ],
  "nodes": [
    {
      "children": [
        1
      ],
      "matrix": [
        1.0,
        0.0,
        0.0,
        0.0,
        0.0,
        2.220446049250313e-16,
        -1.0,
        0.0,
        0.0,
        1.0,
        2.220446049250313e-16,
        0.0,
        0.0,
        0.0,
        0.0,
        1.0
      ],
      "name": "Sketchfab_model"
    },
    {
      "children": [
        2
      ],
      "name": "root"
    },
    {
      "children": [
        3
      ],
      "matrix": [
        1.0,
        0.0,
        0.0,
        0.0,
        0.0,
        2.220446049250313e-16,
        1.0,
        0.0,
        0.0,
        -1.0,
        2.220446049250313e-16,
        0.0,
        0.0,
        0.0,
        0.0,
        1.0
      ],
      "name": "GLTF_SceneRootNode"
    },
    {
      "children": [
        4,
        5
      ],
      "matrix": [
        -0.1719135190382796,
        -4.8269430255514746e-08,
        -0.28320137093281456,
        0.0,
        0.16462253383926817,
        0.26957424026644317,
        -0.09993190366375669,
        0.0,
        0.23043962017243197,
        -0.19257977746887997,
        -0.13988518700839697,
        0.0,
        -0.09556496143341064,
        0.3716967701911926,
        0.0,
        1.0
      ],
      "name": "Cube.035_2"
    },
    {
      "mesh": 0,
      "name": "Object_4"
    },
    {
      "mesh": 1,
      "name": "Object_5"
    }
  ],
  "scene": 0,
  "scenes": [
    {
      "name": "Sketchfab_Scene",
      "nodes": [
        0
      ]
    }
  ]
}
