{
  "accessors": [
    {
      "bufferView": 2,
      "componentType": 5126,
      "count": 2936,
      "max": [
        794.2860107421875,
        1796.6500244140625,
        2011.050048828125
      ],
      "min": [
        -794.2860107421875,
        -1387.6600341796875,
        226.47000122070312
      ],
      "type": "VEC3"
    },
    {
      "bufferView": 2,
      "byteOffset": 35232,
      "componentType": 5126,
      "count": 2936,
      "max": [
        1,
        1,
        1
      ],
      "min": [
        -1,
        -1,
        -1
      ],
      "type": "VEC3"
    },
    {
      "bufferView": 3,
      "componentType": 5126,
      "count": 2936,
      "max": [
        1,
        1,
        1,
        1
      ],
      "min": [
        -1,
        -1,
        -1,
        -1
      ],
      "type": "VEC4"
    },
    {
      "bufferView": 1,
      "componentType": 5126,
      "count": 2936,
      "max": [
        2.2792999744415283,
        2.7460999488830566
      ],
      "min": [
        -1.9853999614715576,
        -1.7382999658584595
      ],
      "type": "VEC2"
    },
    {
      "bufferView": 0,
      "componentType": 5125,
      "count": 7359,
      "max": [
        2935
      ],
      "min": [
        0
      ],
      "type": "SCALAR"
    },
    {
      "bufferView": 2,
      "byteOffset": 70464,
      "componentType": 5126,
      "count": 661,
      "max": [
        1013.5599975585938,
        1200.6800537109375,
        2264.840087890625
      ],
      "min": [
        -1012.6799926757812,
        -1609.219970703125,
        274.9320068359375
      ],
      "type": "VEC3"
    },
    {
      "bufferView": 2,
      "byteOffset": 78396,
      "componentType": 5126,
      "count": 661,
      "max": [
        1,
        1,
        1
      ],
      "min": [
        -1,
        -1,
        -1
      ],
      "type": "VEC3"
    },
    {
      "bufferView": 3,
      "byteOffset": 46976,
      "componentType": 5126,
      "count": 661,
      "max": [
        1,
        0.99999207258224487,
        1,
        1
      ],
      "min": [
        -1,
        -1,
        -1,
        -1
      ],
      "type": "VEC4"
    },
    {
      "bufferView": 1,
      "byteOffset": 23488,
      "componentType": 5126,
      "count": 661,
      "max": [
        2.1698999404907227,
        2.6572000980377197
      ],
      "min": [
        -1.9833999872207642,
        -0.15819999575614929
      ],
      "type": "VEC2"
    },
    {
      "bufferView": 0,
      "byteOffset": 29436,
      "componentType": 5125,
      "count": 1758,
      "max": [
        660
      ],
      "min": [
        0
      ],
      "type": "SCALAR"
    },
    {
      "bufferView": 2,
      "byteOffset": 86328,
      "componentType": 5126,
      "count": 1217,
      "max": [
        633.31097412109375,
        1639.8299560546875,
        2106.77001953125
      ],
      "min": [
        -633.31097412109375,
        -1118.6199951171875,
        -322.135009765625
      ],
      "type": "VEC3"
    },
    {
      "bufferView": 2,
      "byteOffset": 100932,
      "componentType": 5126,
      "count": 1217,
      "max": [
        1,
        1,
        1
      ],
      "min": [
        -1,
        -1,
        -1
      ],
      "type": "VEC3"
    },
    {
      "bufferView": 3,
      "byteOffset": 57552,
      "componentType": 5126,
      "count": 1217,
      "max": [
        1,
        1,
        1,
        1
      ],
      "min": [
        -1,
        -1,
        -1,
        -1
      ],
      "type": "VEC4"
    },
    {
      "bufferView": 1,
      "byteOffset": 28776,
      "componentType": 5126,
      "count": 1217,
      "max": [
        3.8554999828338623,
        1.0068999528884888
      ],
      "min": [
        -1.8789000511169434,
        -0.2070000022649765
      ],
      "type": "VEC2"
    },
    {
      "bufferView": 0,
      "byteOffset": 36468,
      "componentType": 5125,
      "count": 2922,
      "max": [
        1216
      ],
      "min": [
        0
      ],
      "type": "SCALAR"
    },
    {
      "bufferView": 2,
      "byteOffset": 115536,
      "componentType": 5126,
      "count": 3404,
      "max": [
        796.968994140625,
        1775.199951171875,
        866.31707763671875
      ],
      "min": [
        -797.06500244140625,
        -1142.3399658203125,
        -97.793296813964844
      ],
      "type": "VEC3"
    },
    {
      "bufferView": 2,
      "byteOffset": 156384,
      "componentType": 5126,
      "count": 3404,
      "max": [
        1,
        1,
        1
      ],
      "min": [
        -1,
        -1,
        -1
      ],
      "type": "VEC3"
    },
    {
      "bufferView": 3,
      "byteOffset": 77024,
      "componentType": 5126,
      "count": 3404,
      "max": [
        1,
        1,
        1,
        1
      ],
      "min": [
        -1,
        -1,
        -1,
        -1
      ],
      "type": "VEC4"
    },
    {
      "bufferView": 1,
      "byteOffset": 38512,
      "componentType": 5126,
      "count": 3404,
      "max": [
        13.03909969329834,
        1.1912000179290771
      ],
      "min": [
        -4.4882998466491699,
        0
      ],
      "type": "VEC2"
    },
    {
      "bufferView": 0,
      "byteOffset": 48156,
      "componentType": 5125,
      "count": 8118,
      "max": [
        3403
      ],
      "min": [
        0
      ],
      "type": "SCALAR"
    },
    {
      "bufferView": 2,
      "byteOffset": 197232,
      "componentType": 5126,
      "count": 285,
      "max": [
        655.4539794921875,
        1384.0400390625,
        775.9058837890625
      ],
      "min": [
        -655.4539794921875,
        -988.81298828125,
        168.68600463867188
      ],
      "type": "VEC3"
    },
    {
      "bufferView": 2,
      "byteOffset": 200652,
      "componentType": 5126,
      "count": 285,
      "max": [
        0.99825608730316162,
        1,
        1
      ],
      "min": [
        -0.99825608730316162,
        -1,
        -0.22419208288192749
      ],
      "type": "VEC3"
    },
    {
      "bufferView": 3,
      "byteOffset": 131488,
      "componentType": 5126,
      "count": 285,
      "max": [
        1,
        1,
        0.91820311546325684,
        1
      ],
      "min": [
        -0.8208121657371521,
        -1,
        -1,
        -1
      ],
      "type": "VEC4"
    },
    {
      "bufferView": 1,
      "byteOffset": 65744,
      "componentType": 5126,
      "count": 285,
      "max": [
        1.8466999530792236,
        1.8911000490188599
      ],
      "min": [
        -2.099600076675415,
        -1.4277000427246094
      ],
      "type": "VEC2"
    },
    {
      "bufferView": 0,
      "byteOffset": 80628,
      "componentType": 5125,
      "count": 684,
      "max": [
        284
      ],
      "min": [
        0
      ],
      "type": "SCALAR"
    },
    {
      "bufferView": 2,
      "byteOffset": 204072,
      "componentType": 5126,
      "count": 193,
      "max": [
        671.0460205078125,
        1688.1300048828125,
        639.7811279296875
      ],
      "min": [
        -671.0460205078125,
        -1105.27001953125,
        -170.44889831542969
      ],
      "type": "VEC3"
    },
    {
      "bufferView": 2,
      "byteOffset": 206388,
      "componentType": 5126,
      "count": 193,
      "max": [
        1,
        1,
        1
      ],
      "min": [
        -1,
        -0.95231282711029053,
        -1
      ],
      "type": "VEC3"
    },
    {
      "bufferView": 3,
      "byteOffset": 136048,
      "componentType": 5126,
      "count": 193,
      "max": [
        0.92403095960617065,
        1,
        1,
        1
      ],
      "min": [
        -0.99988847970962524,
        -1,
        -0.69366127252578735,
        -1
      ],
      "type": "VEC4"
    },
    {
      "bufferView": 1,
      "byteOffset": 68024,
      "componentType": 5126,
      "count": 193,
      "max": [
        5.7305002212524414,
        2.9072000980377197
      ],
      "min": [
        -1.7891000509262085,
        -0.91500002145767212
      ],
      "type": "VEC2"
    },
    {
      "bufferView": 0,
      "byteOffset": 83364,
      "componentType": 5125,
      "count": 570,
      "max": [
        192
      ],
      "min": [
        0
      ],
      "type": "SCALAR"
    },
    {
      "bufferView": 2,
      "byteOffset": 208704,
      "componentType": 5126,
      "count": 291,
      "max": [
        947.03802490234375,
        1177.58984375,
        1913.6700439453125
      ],
      "min": [
        -947.43902587890625,
        -1408.1700439453125,
        380.91790771484375
      ],
      "type": "VEC3"
    },
    {
      "bufferView": 2,
      "byteOffset": 212196,
      "componentType": 5126,
      "count": 291,
      "max": [
        0.43041202425956726,
        0.99983066320419312,
        0.83372104167938232
      ],
      "min": [
        -0.84878814220428467,
        -0.99944788217544556,
        -0.99068266153335571
      ],
      "type": "VEC3"
    },
    {
      "bufferView": 3,
      "byteOffset": 139136,
      "componentType": 5126,
      "count": 291,
      "max": [
        0.99998551607131958,
        0.33583393692970276,
        0.70558792352676392,
        1
      ],
      "min": [
        0.25133916735649109,
        -0.95301145315170288,
        -0.77813005447387695,
        -1
      ],
      "type": "VEC4"
    },
    {
      "bufferView": 1,
      "byteOffset": 69568,
      "componentType": 5126,
      "count": 291,
      "max": [
        2.0585999488830566,
        0.98919999599456787
      ],
      "min": [
        -1.0722999572753906,
        0.49900001287460327
      ],
      "type": "VEC2"
    },
    {
      "bufferView": 0,
      "byteOffset": 85644,
      "componentType": 5125,
      "count": 1152,
      "max": [
        290
      ],
      "min": [
        0
      ],
      "type": "SCALAR"
    },
    {
      "bufferView": 2,
      "byteOffset": 215688,
      "componentType": 5126,
      "count": 42,
      "max": [
        673.635986328125,
        517.489013671875,
        386.31600952148438
      ],
      "min": [
        -673.4310302734375,
        -548.92498779296875,
        167.60000610351562
      ],
      "type": "VEC3"
    },
    {
      "bufferView": 2,
      "byteOffset": 216192,
      "componentType": 5126,
      "count": 42,
      "max": [
        0.999428391456604,
        0.04980183020234108,
        0.18159297108650208
      ],
      "min": [
        -0.99951320886611938,
        -0.22319722175598145,
        -0.079000890254974365
      ],
      "type": "VEC3"
    },
    {
      "bufferView": 3,
      "byteOffset": 143792,
      "componentType": 5126,
      "count": 42,
      "max": [
        0.2152324914932251,
        0.9996529221534729,
        0.12755115330219269,
        1
      ],
      "min": [
        -0.050151661038398743,
        -0.9993632435798645,
        -0.13162513077259064,
        1
      ],
      "type": "VEC4"
    },
    {
      "bufferView": 1,
      "byteOffset": 71896,
      "componentType": 5126,
      "count": 42,
      "max": [
        0.97610002756118774,
        0.99080002307891846
      ],
      "min": [
        -0.014299999922513962,
        0.0087999999523162842
      ],
      "type": "VEC2"
    },
    {
      "bufferView": 0,
      "byteOffset": 90252,
      "componentType": 5125,
      "count": 96,
      "max": [
        41
      ],
      "min": [
        0
      ],
      "type": "SCALAR"
    },
    {
      "bufferView": 2,
      "byteOffset": 216696,
      "componentType": 5126,
      "count": 64,
      "max": [
        756.677001953125,
        771.36199951171875,
        498.40899658203125
      ],
      "min": [
        -756.677001953125,
        394.5830078125,
        351.31100463867188
      ],
      "type": "VEC3"
    },
    {
      "bufferView": 2,
      "byteOffset": 217464,
      "componentType": 5126,
      "count": 64,
      "max": [
        0.96683132648468018,
        -0.040800385177135468,
        0.43078550696372986
      ],
      "min": [
        -0.96683132648468018,
        -0.20588751137256622,
        0.21700702607631683
      ],
      "type": "VEC3"
    },
    {
      "bufferView": 3,
      "byteOffset": 144464,
      "componentType": 5126,
      "count": 64,
      "max": [
        0.44767534732818604,
        0.41869890689849854,
        0.90660703182220459,
        1
      ],
      "min": [
        -0.44767534732818604,
        -0.371246337890625,
        -0.86400687694549561,
        -1
      ],
      "type": "VEC4"
    },
    {
      "bufferView": 1,
      "byteOffset": 72232,
      "componentType": 5126,
      "count": 64,
      "max": [
        0.99849998950958252,
        0.99599999189376831
      ],
      "min": [
        0.0057000000961124897,
        0.29829999804496765
      ],
      "type": "VEC2"
    },
    {
      "bufferView": 0,
      "byteOffset": 90636,
      "componentType": 5125,
      "count": 96,
      "max": [
        63
      ],
      "min": [
        0
      ],
      "type": "SCALAR"
    }
  ],
  "asset": {
    "extras": {
      "author": "loriscangini (https://sketchfab.com/loriscangini)",
      "license": "CC-BY-NC-4.0 (http://creativecommons.org/licenses/by-nc/4.0/)",
      "source": "https://sketchfab.com/models/cea7d78b5c66415588db3d09ff3ab7e9",
      "title": "Marine Ship"
    },
    "generator": "Sketchfab-3.29.3",
    "version": "2.0"
  },
  "bufferViews": [
    {
      "buffer": 0,
      "byteLength": 91020,
      "byteOffset": 0,
      "name": "floatBufferViews",
      "target": 34963
    },
    {
      "buffer": 0,
      "byteLength": 72744,
      "byteOffset": 91020,
      "byteStride": 8,
      "name": "floatBufferViews",
      "target": 34962
    },
    {
      "buffer": 0,
      "byteLength": 218232,
      "byteOffset": 163764,
      "byteStride": 12,
      "name": "floatBufferViews",
      "target": 34962
    },
    {
      "buffer": 0,
      "byteLength": 145488,
      "byteOffset": 381996,
      "byteStride": 16,
      "name": "floatBufferViews",
      "target": 34962
    }
  ],
  "buffers": [
    {
      "byteLength": 527484,
      "uri": "scene.bin"
    }
  ],
  "images": [
    {
      "uri": "textures/surface_003_emissive.png"
    },
    {
      "uri": "textures/surface_003_baseColor.png"
    },
    {
      "uri": "textures/surface_007_baseColor.png"
    },
    {
      "uri": "textures/surface_007_emissive.png"
    },
    {
      "uri": "textures/surface_004_emissive.png"
    },
    {
      "uri": "textures/surface_004_baseColor.png"
    },
    {
      "uri": "textures/surface_002_emissive.png"
    },
    {
      "uri": "textures/surface_002_baseColor.png"
    },
    {
      "uri": "textures/surface_000_emissive.png"
    },
    {
      "uri": "textures/surface_000_baseColor.png"
    },
    {
      "uri": "textures/surface_001_emissive.png"
    },
    {
      "uri": "textures/surface_001_baseColor.png"
    },
    {
      "uri": "textures/surface_006_emissive.png"
    },
    {
      "uri": "textures/surface_006_baseColor.png"
    },
    {
      "uri": "textures/surface_005_emissive.png"
    },
    {
      "uri": "textures/surface_005_baseColor.png"
    },
    {
      "uri": "textures/surface_008_emissive.png"
    },
    {
      "uri": "textures/surface_008_baseColor.png"
    }
  ],
  "materials": [
    {
      "doubleSided": true,
      "emissiveFactor": [
        0,
        0,
        0
      ],
      "emissiveTexture": {
        "index": 8,
        "texCoord": 0
      },
      "name": "surface_000",
      "pbrMetallicRoughness": {
        "baseColorFactor": [
          1,
          1,
          1,
          1
        ],
        "baseColorTexture": {
          "index": 9,
          "texCoord": 0
        },
        "metallicFactor": 0,
        "roughnessFactor": 0.59999999999999998
      }
    },
    {
      "doubleSided": true,
      "emissiveFactor": [
        0,
        0,
        0
      ],
      "emissiveTexture": {
        "index": 10,
        "texCoord": 0
      },
      "name": "surface_001",
      "pbrMetallicRoughness": {
        "baseColorFactor": [
          1,
          1,
          1,
          1
        ],
        "baseColorTexture": {
          "index": 11,
          "texCoord": 0
        },
        "metallicFactor": 0,
        "roughnessFactor": 0.59999999999999998
      }
    },
    {
      "doubleSided": true,
      "emissiveFactor": [
        0,
        0,
        0
      ],
      "emissiveTexture": {
        "index": 6,
        "texCoord": 0
      },
      "name": "surface_002",
      "pbrMetallicRoughness": {
        "baseColorFactor": [
          1,
          1,
          1,
          1
        ],
        "baseColorTexture": {
          "index": 7,
          "texCoord": 0
        },
        "metallicFactor": 0,
        "roughnessFactor": 0.59999999999999998
      }
    },
    {
      "doubleSided": true,
      "emissiveFactor": [
        0,
        0,
        0
      ],
      "emissiveTexture": {
        "index": 0,
        "texCoord": 0
      },
      "name": "surface_003",
      "pbrMetallicRoughness": {
        "baseColorFactor": [
          1,
          1,
          1,
          1
        ],
        "baseColorTexture": {
          "index": 1,
          "texCoord": 0
        },
        "metallicFactor": 0,
        "roughnessFactor": 0.59999999999999998
      }
    },
    {
      "doubleSided": true,
      "emissiveFactor": [
        0,
        0,
        0
      ],
      "emissiveTexture": {
        "index": 4,
        "texCoord": 0
      },
      "name": "surface_004",
      "pbrMetallicRoughness": {
        "baseColorFactor": [
          1,
          1,
          1,
          1
        ],
        "baseColorTexture": {
          "index": 5,
          "texCoord": 0
        },
        "metallicFactor": 0,
        "roughnessFactor": 0.59999999999999998
      }
    },
    {
      "doubleSided": true,
      "emissiveFactor": [
        0,
        0,
        0
      ],
      "emissiveTexture": {
        "index": 14,
        "texCoord": 0
      },
      "name": "surface_005",
      "pbrMetallicRoughness": {
        "baseColorFactor": [
          1,
          1,
          1,
          1
        ],
        "baseColorTexture": {
          "index": 15,
          "texCoord": 0
        },
        "metallicFactor": 0,
        "roughnessFactor": 0.59999999999999998
      }
    },
    {
      "doubleSided": true,
      "emissiveFactor": [
        0,
        0,
        0
      ],
      "emissiveTexture": {
        "index": 12,
        "texCoord": 0
      },
      "name": "surface_006",
      "pbrMetallicRoughness": {
        "baseColorFactor": [
          1,
          1,
          1,
          1
        ],
        "baseColorTexture": {
          "index": 13,
          "texCoord": 0
        },
        "metallicFactor": 0,
        "roughnessFactor": 0.59999999999999998
      }
    },
    {
      "alphaCutoff": 1,
      "alphaMode": "MASK",
      "doubleSided": true,
      "emissiveFactor": [
        0,
        0,
        0
      ],
      "emissiveTexture": {
        "index": 3,
        "texCoord": 0
      },
      "name": "surface_007",
      "pbrMetallicRoughness": {
        "baseColorFactor": [
          1,
          1,
          1,
          1
        ],
        "baseColorTexture": {
          "index": 2,
          "texCoord": 0
        },
        "metallicFactor": 0,
        "roughnessFactor": 0.59999999999999998
      }
    },
    {
      "doubleSided": true,
      "emissiveFactor": [
        0,
        0,
        0
      ],
      "emissiveTexture": {
        "index": 16,
        "texCoord": 0
      },
      "name": "surface_008",
      "pbrMetallicRoughness": {
        "baseColorFactor": [
          1,
          1,
          1,
          1
        ],
        "baseColorTexture": {
          "index": 17,
          "texCoord": 0
        },
        "metallicFactor": 0,
        "roughnessFactor": 0.59999999999999998
      }
    }
  ],
  "meshes": [
    {
      "primitives": [
        {
          "attributes": {
            "NORMAL": 1,
            "POSITION": 0,
            "TANGENT": 2,
            "TEXCOORD_0": 3
          },
          "indices": 4,
          "material": 0,
          "mode": 4
        }
      ]
    },
    {
      "primitives": [
        {
          "attributes": {
            "NORMAL": 6,
            "POSITION": 5,
            "TANGENT": 7,
            "TEXCOORD_0": 8
          },
          "indices": 9,
          "material": 1,
          "mode": 4
        }
      ]
    },
    {
      "primitives": [
        {
          "attributes": {
            "NORMAL": 11,
            "POSITION": 10,
            "TANGENT": 12,
            "TEXCOORD_0": 13
          },
          "indices": 14,
          "material": 2,
          "mode": 4
        }
      ]
    },
    {
      "primitives": [
        {
          "attributes": {
            "NORMAL": 16,
            "POSITION": 15,
            "TANGENT": 17,
            "TEXCOORD_0": 18
          },
          "indices": 19,
          "material": 3,
          "mode": 4
        }
      ]
    },
    {
      "primitives": [
        {
          "attributes": {
            "NORMAL": 21,
            "POSITION": 20,
            "TANGENT": 22,
            "TEXCOORD_0": 23
          },
          "indices": 24,
          "material": 4,
          "mode": 4
        }
      ]
    },
    {
      "primitives": [
        {
          "attributes": {
            "NORMAL": 26,
            "POSITION": 25,
            "TANGENT": 27,
            "TEXCOORD_0": 28
          },
          "indices": 29,
          "material": 5,
          "mode": 4
        }
      ]
    },
    {
      "primitives": [
        {
          "attributes": {
            "NORMAL": 31,
            "POSITION": 30,
            "TANGENT": 32,
            "TEXCOORD_0": 33
          },
          "indices": 34,
          "material": 6,
          "mode": 4
        }
      ]
    },
    {
      "primitives": [
        {
          "attributes": {
            "NORMAL": 36,
            "POSITION": 35,
            "TANGENT": 37,
            "TEXCOORD_0": 38
          },
          "indices": 39,
          "material": 7,
          "mode": 4
        }
      ]
    },
    {
      "primitives": [
        {
          "attributes": {
            "NORMAL": 41,
            "POSITION": 40,
            "TANGENT": 42,
            "TEXCOORD_0": 43
          },
          "indices": 44,
          "material": 8,
          "mode": 4
        }
      ]
    }
  ],
  "nodes": [
    {
      "children": [
        1
      ],
      "name": "RootNode (gltf orientation matrix)",
      "rotation": [
        -0.70710678118654746,
        -0,
        -0,
        0.70710678118654757
      ]
    },
    {
      "children": [
        2
      ],
      "name": "RootNode (model correction matrix)"
    },
    {
      "children": [
        3,
        4,
        5,
        6,
        7,
        8,
        9,
        10,
        11
      ],
      "name": "ship.obj.cleaner"
    },
    {
      "mesh": 0,
      "name": ""
    },
    {
      "mesh": 1,
      "name": ""
    },
    {
      "mesh": 2,
      "name": ""
    },
    {
      "mesh": 3,
      "name": ""
    },
    {
      "mesh": 4,
      "name": ""
    },
    {
      "mesh": 5,
      "name": ""
    },
    {
      "mesh": 6,
      "name": ""
    },
    {
      "mesh": 7,
      "name": ""
    },
    {
      "mesh": 8,
      "name": ""
    }
  ],
  "samplers": [
    {
      "magFilter": 9729,
      "minFilter": 9987,
      "wrapS": 10497,
      "wrapT": 10497
    },
    {
      "magFilter": 9728,
      "minFilter": 9728,
      "wrapS": 10497,
      "wrapT": 10497
    }
  ],
  "scene": 0,
  "scenes": [
    {
      "name": "OSG_Scene",
      "nodes": [
        0
      ]
    }
  ],
  "textures": [
    {
      "sampler": 0,
      "source": 0
    },
    {
      "sampler": 0,
      "source": 1
    },
    {
      "sampler": 1,
      "source": 2
    },
    {
      "sampler": 0,
      "source": 3
    },
    {
      "sampler": 0,
      "source": 4
    },
    {
      "sampler": 0,
      "source": 5
    },
    {
      "sampler": 0,
      "source": 6
    },
    {
      "sampler": 0,
      "source": 7
    },
    {
      "sampler": 0,
      "source": 8
    },
    {
      "sampler": 0,
      "source": 9
    },
    {
      "sampler": 0,
      "source": 10
    },
    {
      "sampler": 0,
      "source": 11
    },
    {
      "sampler": 0,
      "source": 12
    },
    {
      "sampler": 0,
      "source": 13
    },
    {
      "sampler": 0,
      "source": 14
    },
    {
      "sampler": 0,
      "source": 15
    },
    {
      "sampler": 0,
      "source": 16
    },
    {
      "sampler": 0,
      "source": 17
    }
  ]
}

